<?xml version="1.0" encoding="utf-8"?>

<svg version="1.1" id="Layer_1" xmlns="http://www.w3.org/2000/svg" xmlns:xlink="http://www.w3.org/1999/xlink" x="0px" y="0px"
	 viewBox="0 0 100 100" enable-background="new 0 0 100 100" xml:space="preserve">
<g>
	<path fill="#AA90C3" d="M76.8,31.2c-1.9-1.9-4.2-3.3-6.6-4c-2.4,0.8-6.9,0.1-9.4,3.1c-1.9,2.2-4.4,5.4-5.1,8
		c-1.9-0.3-0.2-0.4-2.2-0.4s-7.8,0.1-9.7,0.4c-0.7-2.6-2.1-5.1-4.1-7.1c-1.9-1.9-1.7-2.1-4.2-2.8C33,29.2,32,29.3,30,31.2
		c-5.4,5.4-6.2,13.7-2.5,20c-0.7,1.9-1.2,4-1.2,6.2c0,12.4,12.1,25.5,27,25.5s27-13.1,27-25.5c0-2.3-0.4-4.3-1.2-6.2
		C83,44.9,82.2,36.6,76.8,31.2z"/>
	<path fill="#FFF100" d="M55,70.5v1.8c0,3.1-2.5,5.6-5.6,5.6h0c-3.1,0-5.6-2.5-5.6-5.6v-1.8l5.9-3C49.7,67.5,55.2,70.3,55,70.5z"/>
	<g>
		<g>
			<path fill="#231F20" d="M52.2,52.7c-0.1,0-0.1,0-0.2,0c-0.8-0.1-1.4-0.8-1.3-1.7c0.2-1.9,1.1-3.7,2.4-5.1c3.3-3.3,8.6-3.3,11.9,0
				c0.7,0.7,1.3,1.6,1.8,2.6c0.3,0.8,0,1.6-0.8,2c-0.8,0.3-1.6,0-2-0.8c-0.3-0.6-0.7-1.2-1.1-1.7c-2.1-2.1-5.6-2.1-7.7,0
				c-0.9,0.9-1.4,2-1.6,3.3C53.6,52.1,52.9,52.7,52.2,52.7z"/>
		</g>
		<g>
			<path fill="#231F20" d="M46.7,52.7c-0.8,0-1.4-0.6-1.5-1.3c-0.1-1.2-0.7-2.4-1.6-3.3c-2.1-2.1-5.6-2.1-7.7,0
				c-0.5,0.5-0.9,1-1.1,1.7c-0.3,0.8-1.2,1.1-2,0.8c-0.8-0.3-1.1-1.2-0.8-2c0.4-1,1-1.8,1.7-2.6c3.3-3.3,8.6-3.3,11.9,0
				c1.4,1.4,2.2,3.2,2.4,5.1c0.1,0.8-0.5,1.6-1.3,1.7C46.8,52.7,46.7,52.7,46.7,52.7z"/>
		</g>
	</g>
	<g>
		<path fill="#231F20" d="M44.8,70.9c-3.3,0-6-2.7-6-6c0-0.8,0.7-1.5,1.5-1.5s1.5,0.7,1.5,1.5c0,1.7,1.3,3,3,3c1.7,0,3.1-1.4,3.1-3
			c0-0.8,0.7-1.5,1.5-1.5s1.5,0.7,1.5,1.5C50.9,68.2,48.2,70.9,44.8,70.9z"/>
		<path fill="#231F20" d="M54,70.9c-3.4,0-6.1-2.7-6.1-6v-3c0-0.8,0.7-1.5,1.5-1.5s1.5,0.7,1.5,1.5v3c0,1.6,1.4,3,3.1,3
			c1.7,0,3-1.3,3-3c0-0.8,0.7-1.5,1.5-1.5s1.5,0.7,1.5,1.5C60,68.2,57.3,70.9,54,70.9z"/>
	</g>
	<path fill="#231F20" d="M53.3,62c0,2.1-1.7,3.9-3.9,3.9c-2.1,0-3.9-1.7-3.9-3.9s1.7-2.5,3.9-2.5C51.6,59.5,53.3,59.9,53.3,62z"/>
	<g>
		<path fill="#231F20" d="M36.3,38.7c-0.1,0-0.2,0-0.3,0c-0.5-0.2-0.8-0.7-0.7-1.3c0.6-1.8-1.1-3.2-1.2-3.2c-0.4-0.3-0.5-1-0.1-1.4
			c0.3-0.4,1-0.5,1.4-0.2c0.1,0.1,2.8,2.3,1.8,5.4C37.1,38.5,36.7,38.7,36.3,38.7z"/>
		<path fill="#231F20" d="M62.6,38.7c-0.4,0-0.8-0.3-1-0.7c-1-3.1,1.7-5.3,1.8-5.4c0.4-0.3,1.1-0.3,1.4,0.2c0.3,0.4,0.3,1.1-0.2,1.4
			l0,0c-0.1,0.1-1.7,1.4-1.2,3.2c0.2,0.5-0.1,1.1-0.7,1.3C62.8,38.7,62.7,38.7,62.6,38.7z"/>
	</g>
	<g>
		<path fill="#231F20" d="M32.5,61.5c-0.4,0-0.7-0.2-0.9-0.6c-0.2-0.5,0-1.1,0.5-1.3l4.5-2l-5-1.5c-0.5-0.2-0.8-0.7-0.7-1.2
			c0.2-0.5,0.7-0.8,1.2-0.7l7.6,2.3c0.4,0.1,0.7,0.5,0.7,0.9c0,0.4-0.2,0.8-0.6,1l-7,3.1C32.8,61.5,32.7,61.5,32.5,61.5z"/>
		<path fill="#231F20" d="M66.3,61.5c-0.1,0-0.3,0-0.4-0.1l-7-3.1c-0.4-0.2-0.6-0.6-0.6-1c0-0.4,0.3-0.8,0.7-0.9l7.6-2.3
			c0.5-0.2,1.1,0.1,1.2,0.7c0.2,0.5-0.1,1.1-0.7,1.2l-5,1.5l4.5,2c0.5,0.2,0.7,0.8,0.5,1.3C67,61.3,66.7,61.5,66.3,61.5z"/>
	</g>
	<path fill="#231F20" d="M49.4,79.2c-3.9,0-7.1-3.2-7.1-7.1v-1.8c0-0.8,0.7-1.5,1.5-1.5s1.5,0.7,1.5,1.5V72c0,2.3,1.9,4.1,4.1,4.1
		s4.1-1.9,4.1-4.1v-1.8c0-0.8,0.7-1.5,1.5-1.5s1.5,0.7,1.5,1.5V72C56.5,76,53.3,79.2,49.4,79.2z"/>
	<path fill="#231F20" d="M49.4,84.4c-16.3,0-28.5-14.3-28.5-27c0-2.1,0.3-4.2,1-6.1c-3.8-6.9-2.6-15.5,3.1-21.2c2-2,4.5-3.5,7.2-4.4
		c0.3-0.1,0.6-0.1,0.9,0c2.8,0.9,5.2,2.4,7.2,4.4c1.8,1.8,3.3,4.1,4.2,6.5c3.2-0.3,6.6-0.3,9.8,0c0.9-2.4,2.3-4.7,4.2-6.5
		c2-2,4.5-3.5,7.2-4.4c0.3-0.1,0.6-0.1,0.9,0c2.8,0.9,5.2,2.4,7.2,4.4l0,0l0,0c5.6,5.6,6.8,14.2,3.1,21.2c0.7,1.9,1,4,1,6.1
		C77.9,70.2,65.7,84.4,49.4,84.4z M32.7,28.8c-2.1,0.7-4,1.9-5.6,3.5c-4.8,4.8-5.7,12.3-2.2,18.1c0.2,0.4,0.3,0.9,0.1,1.3
		c-0.7,1.8-1,3.7-1,5.7c0,11.1,11.1,24,25.5,24s25.5-12.9,25.5-24c0-2-0.4-3.9-1-5.7c-0.2-0.4-0.1-0.9,0.1-1.3
		c3.5-5.9,2.6-13.3-2.2-18.1l0,0c-1.6-1.6-3.5-2.8-5.6-3.5c-2.1,0.7-4,1.9-5.6,3.5c-1.8,1.8-3.1,4-3.8,6.5c-0.2,0.7-0.9,1.2-1.6,1.1
		c-3.7-0.5-7.8-0.5-11.5,0c-0.7,0.1-1.4-0.4-1.6-1.1c-0.7-2.4-2-4.7-3.8-6.5C36.6,30.7,34.8,29.5,32.7,28.8z"/>
</g>
</svg>
