<?xml version="1.0" encoding="utf-8"?>

<svg version="1.1" id="Layer_1" xmlns="http://www.w3.org/2000/svg" xmlns:xlink="http://www.w3.org/1999/xlink" x="0px" y="0px"
	 viewBox="0 0 100 100" enable-background="new 0 0 100 100" xml:space="preserve">
<g>
	<path fill="#AA90C3" d="M83.7,40c0-2.3-0.5-4.5-1.4-6.5c-2-0.9-4.2-1.4-6.5-1.4c-3.9,0-11.5,1.5-14.2,3.8c-3.6-1.1-3.7-1.7-7.9-1.7
		s-12.3,0.6-15.9,1.7c-2.7-2.4-2.3-3.8-6.2-3.8c-2.3,0-4.5,0.5-6.5,1.4c-0.9,2-1.4,4.2-1.4,6.5c0,3.2,1,6.2,2.6,8.7
		c-0.8,2.1-1.3,4.4-1.3,6.9c0,13.5,12.9,27.4,28.8,27.4c15.9,0,28.8-13.9,28.8-27.4c0-2.5-0.4-4.8-1.3-6.9
		C82.7,46.2,83.7,43.2,83.7,40z"/>
	<g>
		<path fill="#FFF100" d="M45.5,48.1c0-1-0.2-2-0.5-2.9c-1.4-1.1-3.1-1.8-5-1.8c-4.4,0-8,3.6-8,8c0,1,0.2,2,0.5,2.9
			c1.4,1.1,3.1,1.8,5,1.8C42,56.1,45.5,52.5,45.5,48.1z"/>
		<path fill="#FFF100" d="M53.5,48.1c0-1,0.2-2,0.5-2.9c1.4-1.1,3.1-1.8,5-1.8c4.4,0,8,3.6,8,8c0,1-0.2,2-0.5,2.9
			c-1.4,1.1-3.1,1.8-5,1.8C57.1,56.1,53.5,52.5,53.5,48.1z"/>
	</g>
	<g>
		<path fill="#231F20" d="M37.6,57.6c-2.1,0-4.3-0.7-5.9-2.1c-0.2-0.2-0.4-0.4-0.5-0.6c-0.4-1.1-0.6-2.3-0.6-3.4
			c0-5.2,4.2-9.5,9.5-9.5c2.1,0,4.3,0.7,5.9,2.1c0.2,0.2,0.4,0.4,0.5,0.6c0.4,1.1,0.6,2.3,0.6,3.4C47,53.4,42.8,57.6,37.6,57.6z
			 M33.9,53.4c1.1,0.8,2.4,1.2,3.7,1.2c3.6,0,6.5-2.9,6.5-6.5c0-0.7-0.1-1.3-0.3-2C42.6,45.4,41.4,45,40,45c-3.6,0-6.5,2.9-6.5,6.5
			C33.6,52.1,33.7,52.8,33.9,53.4z"/>
		<path fill="#231F20" d="M61.5,57.6c-5.2,0-9.5-4.2-9.5-9.5c0-1.2,0.2-2.3,0.6-3.4c0.1-0.2,0.3-0.5,0.5-0.6
			c1.7-1.4,3.8-2.1,5.9-2.1c5.2,0,9.5,4.2,9.5,9.5c0,1.2-0.2,2.3-0.6,3.4c-0.1,0.2-0.3,0.5-0.5,0.6C65.7,56.9,63.6,57.6,61.5,57.6z
			 M55.3,46.2c-0.2,0.6-0.3,1.3-0.3,2c0,3.6,2.9,6.5,6.5,6.5c1.4,0,2.6-0.4,3.7-1.2c0.2-0.6,0.3-1.3,0.3-2c0-3.6-2.9-6.5-6.5-6.5
			C57.7,45,56.4,45.4,55.3,46.2z"/>
	</g>
	<g>
		<path fill="#231F20" d="M44.1,75c-3.7,0-6.7-3-6.7-6.7c0-0.8,0.7-1.5,1.5-1.5s1.5,0.7,1.5,1.5c0,2.1,1.7,3.7,3.7,3.7
			c2.1,0,3.9-1.7,3.9-3.7c0-0.8,0.7-1.5,1.5-1.5s1.5,0.7,1.5,1.5C51,71.9,47.9,75,44.1,75z"/>
		<path fill="#231F20" d="M54.9,75c-3.7,0-6.9-3.1-6.9-6.7v-3.5c0-0.8,0.7-1.5,1.5-1.5s1.5,0.7,1.5,1.5v3.5c0,2,1.8,3.7,3.9,3.7
			c2.1,0,3.7-1.7,3.7-3.7c0-0.8,0.7-1.5,1.5-1.5s1.5,0.7,1.5,1.5C61.7,72,58.6,75,54.9,75z"/>
	</g>
	<path fill="#231F20" d="M54.1,64.9c0,2.5-2,4.5-4.5,4.5c-2.5,0-4.5-2-4.5-4.5c0-2.5,2-2.9,4.5-2.9C52,62,54.1,62.4,54.1,64.9z"/>
	<g>
		<path fill="#231F20" d="M34.2,40.1c-0.4,0-0.7-0.2-0.9-0.5c-0.9-1.7-3-1.5-3.1-1.5c-0.5,0.1-1-0.3-1.1-0.9c-0.1-0.5,0.3-1,0.9-1.1
			c0.1,0,3.6-0.4,5.1,2.5c0.3,0.5,0.1,1.1-0.4,1.3C34.5,40.1,34.3,40.1,34.2,40.1z"/>
		<path fill="#231F20" d="M66.1,40.1c-0.2,0-0.3,0-0.5-0.1c-0.5-0.3-0.7-0.9-0.4-1.3c1.5-2.9,4.9-2.6,5.1-2.5
			c0.5,0.1,0.9,0.6,0.9,1.1c-0.1,0.5-0.6,0.9-1.1,0.9c-0.1,0-2.2-0.2-3.1,1.5C66.8,39.9,66.5,40.1,66.1,40.1z"/>
	</g>
	<g>
		<path fill="#231F20" d="M32.7,65.8c-0.4,0-0.7-0.2-0.9-0.6c-0.2-0.5,0-1.1,0.5-1.3l4.5-2l-5-1.5c-0.5-0.2-0.8-0.7-0.7-1.2
			c0.2-0.5,0.7-0.8,1.2-0.7l7.6,2.3c0.4,0.1,0.7,0.5,0.7,0.9c0,0.4-0.2,0.8-0.6,1l-7,3.1C32.9,65.8,32.8,65.8,32.7,65.8z"/>
		<path fill="#231F20" d="M66.4,65.8c-0.1,0-0.3,0-0.4-0.1l-7-3.1c-0.4-0.2-0.6-0.6-0.6-1c0-0.4,0.3-0.8,0.7-0.9l7.6-2.3
			c0.5-0.2,1.1,0.1,1.2,0.7c0.2,0.5-0.1,1.1-0.7,1.2l-5,1.5l4.5,2c0.5,0.2,0.7,0.8,0.5,1.3C67.2,65.6,66.8,65.8,66.4,65.8z"/>
	</g>
	<path fill="#231F20" d="M49.5,84.4c-17.3,0-30.3-15.2-30.3-28.9c0-2.3,0.4-4.6,1.1-6.7c-1.6-2.7-2.5-5.7-2.5-8.9
		c0-2.5,0.5-4.9,1.6-7.2c0.1-0.3,0.4-0.6,0.7-0.7c2.3-1.1,4.7-1.6,7.2-1.6c3.8,0,7.6,1.3,10.6,3.7c3.6-1,7.5-1.5,11.6-1.5
		c4.1,0,8,0.5,11.6,1.5c3-2.4,6.7-3.7,10.6-3.7c2.5,0,4.9,0.5,7.2,1.6c0.3,0.1,0.6,0.4,0.7,0.7c1,2.3,1.6,4.7,1.6,7.2
		c0,3.1-0.9,6.2-2.5,8.9c0.7,2.1,1.1,4.4,1.1,6.7C79.8,69.2,66.8,84.4,49.5,84.4z M22,34.6c-0.7,1.7-1.1,3.5-1.1,5.4
		c0,2.8,0.8,5.5,2.4,7.9c0.3,0.4,0.3,0.9,0.2,1.4c-0.8,2-1.2,4.1-1.2,6.3c0,12.2,11.7,25.9,27.3,25.9s27.3-13.7,27.3-25.9
		c0-2.2-0.4-4.4-1.2-6.3c-0.2-0.5-0.1-1,0.2-1.4c1.6-2.3,2.4-5,2.4-7.9c0-1.9-0.4-3.7-1.1-5.4c-1.7-0.7-3.5-1.1-5.4-1.1
		c-3.4,0-6.7,1.2-9.3,3.5c-0.4,0.3-0.9,0.5-1.4,0.3c-3.5-1.1-7.4-1.6-11.5-1.6s-7.9,0.5-11.5,1.6c-0.5,0.1-1,0-1.4-0.3
		c-2.6-2.2-5.9-3.5-9.3-3.5C25.5,33.5,23.7,33.8,22,34.6z"/>
</g>
</svg>
