<?xml version="1.0" encoding="utf-8"?>

<svg version="1.1" id="Layer_1" xmlns="http://www.w3.org/2000/svg" xmlns:xlink="http://www.w3.org/1999/xlink" x="0px" y="0px"
	 viewBox="0 0 100 100" enable-background="new 0 0 100 100" xml:space="preserve">
<g>
	<g>
		<linearGradient id="SVGID_1_" gradientUnits="userSpaceOnUse" x1="53.2906" y1="83.2483" x2="53.2906" y2="16.915">
			<stop  offset="0" style="stop-color:#F6921E"/>
			<stop  offset="0.3442" style="stop-color:#F7951D"/>
			<stop  offset="0.5983" style="stop-color:#F89E1A"/>
			<stop  offset="0.8228" style="stop-color:#FBAE14"/>
			<stop  offset="1" style="stop-color:#FFC10E"/>
		</linearGradient>
		<path fill="url(#SVGID_1_)" d="M81.7,54.9c0-14.2-15.6-35.5-28.4-35.5c-12.9,0-28.4,21.3-28.4,35.5c0,0.3,0,0.7,0,1
			c-0.6,12,8.6,24.1,17.3,25.1c1,0.1,2,1.1,3.1,1c2.7,0.9,5.4-0.6,8-0.6s5.3-0.5,8-1.4c1.1,0.1,2.1,0.2,3.1,0
			c8.7-1,17.9-12.1,17.3-24.1C81.7,55.6,81.7,55.2,81.7,54.9z"/>
	</g>
	<path fill="#8BC53F" d="M56.2,19.9c0,0,9.8-3,12.7-0.8l-9,4.7L56.2,19.9z"/>
	<path fill="#231F20" d="M60.8,24.4L60,21.5c2.9-0.8,5.8-2,7.2-2.8c-0.3-0.1-0.8-0.2-1.5-0.3C56.2,17,50.3,20,50.2,20.1l-1.4-2.6
		c0.3-0.1,6.7-3.6,17.3-2c1.5,0.2,4.6,0.7,4.7,2.9C70.8,19.2,71,21.4,60.8,24.4z"/>
	<path fill="#231F20" d="M49.6,20.4c12.1,0,26.8,20.3,26.8,34.5c0,0.3,0,0.7,0,1c0.5,12-8.1,23.2-16.3,24.1c-0.4,0-0.8,0.1-1.2,0.1
		c-0.6,0-1.1,0-1.7-0.1c-2.5,0.9-5.1,1.4-7.5,1.4s-5-0.5-7.5-1.4c-0.6,0.1-1.1,0.1-1.7,0.1c-0.4,0-0.8,0-1.2-0.1
		c-8.2-1-16.8-12.1-16.3-24.1c0-0.3,0-0.7,0-1C22.9,40.7,37.5,20.4,49.6,20.4 M49.6,17.4c-6.6,0-14,4.8-20.3,13.1
		c-5.9,7.8-9.4,16.9-9.4,24.4c0,0.3,0,0.7,0,1C19.4,68.6,28.6,81.8,38.8,83c0.5,0.1,1,0.1,1.6,0.1c0.4,0,0.9,0,1.3-0.1
		c2.7,0.9,5.3,1.4,7.9,1.4s5.2-0.5,7.9-1.4c0.5,0,0.9,0.1,1.3,0.1c0.5,0,1.1,0,1.6-0.1c10.3-1.2,19.4-14.4,18.9-27.1
		c0-0.3,0-0.7,0-1c0-7.4-3.5-16.5-9.4-24.4C63.6,22.2,56.2,17.4,49.6,17.4L49.6,17.4z"/>
	<g>
		<path fill="#231F20" d="M39.2,65.8c-0.3,0-0.7-0.2-0.9-0.5c-1.4-2.3-2.2-5.3-2.5-9c0-0.6,0.4-1,0.9-1.1c0.6-0.1,1,0.4,1.1,0.9
			c0.3,3.4,1,6.1,2.2,8.2c0.3,0.5,0.1,1.1-0.4,1.4C39.5,65.8,39.3,65.8,39.2,65.8z M36.7,53.2C36.7,53.2,36.7,53.2,36.7,53.2
			c-0.6,0-1-0.5-1-1c0-2.8,0.3-5.8,0.8-9.1c0.1-0.5,0.6-0.9,1.1-0.8c0.5,0.1,0.9,0.6,0.8,1.1c-0.5,3.2-0.8,6.2-0.8,8.8
			C37.7,52.8,37.2,53.2,36.7,53.2z M38.2,40.3c-0.1,0-0.1,0-0.2,0c-0.5-0.1-0.9-0.6-0.8-1.2c1-5.1,2.2-8.7,2.2-8.8
			c0.2-0.5,0.7-0.8,1.3-0.7c0.5,0.2,0.8,0.7,0.7,1.3c0,0-1.2,3.7-2.2,8.6C39.1,40,38.7,40.3,38.2,40.3z"/>
		<path fill="#231F20" d="M60.1,65.8c-0.2,0-0.3,0-0.5-0.1c-0.5-0.3-0.6-0.9-0.4-1.4c1.2-2,1.9-4.8,2.2-8.2c0-0.6,0.5-1,1.1-0.9
			c0.6,0,1,0.5,0.9,1.1c-0.3,3.7-1.1,6.7-2.5,9C60.8,65.7,60.4,65.8,60.1,65.8z M62.6,53.2c-0.5,0-1-0.4-1-1c0-2.7-0.3-5.6-0.8-8.8
			c-0.1-0.5,0.3-1.1,0.8-1.1c0.5-0.1,1.1,0.3,1.1,0.8c0.5,3.3,0.8,6.3,0.8,9.1C63.6,52.8,63.1,53.2,62.6,53.2
			C62.6,53.2,62.6,53.2,62.6,53.2z M61,40.3c-0.5,0-0.9-0.3-1-0.8c-1-5-2.1-8.6-2.2-8.6c-0.2-0.5,0.1-1.1,0.7-1.3s1.1,0.1,1.3,0.7
			c0,0.2,1.2,3.8,2.2,8.8c0.1,0.5-0.2,1.1-0.8,1.2C61.2,40.3,61.1,40.3,61,40.3z"/>
	</g>
	<g>
		<path fill="#FFF100" d="M40.1,44c-3,0-5.5-1.3-6.5-3.1c-0.3,0.8-0.4,1.6-0.4,2.5c0,3.9,3.1,7,7,7s7-3.1,7-7c0-0.9-0.2-1.7-0.4-2.5
			C45.6,42.7,43.1,44,40.1,44z"/>
		<path fill="#FFF100" d="M59.2,44c-3,0-5.6-1.3-6.5-3.1c-0.3,0.8-0.4,1.6-0.4,2.5c0,3.9,3.1,7,7,7s7-3.1,7-7c0-0.9-0.2-1.7-0.4-2.5
			C64.7,42.7,62.2,44,59.2,44z"/>
	</g>
	<path fill="#FFF100" d="M49.6,64.7c-10.2,0-18.7-7.1-21-16.5c-0.4,1.6-0.6,3.3-0.6,5c0,11.9,9.7,21.6,21.6,21.6
		c11.9,0,21.6-9.7,21.6-21.6c0-1.7-0.2-3.4-0.6-5C68.3,57.7,59.8,64.7,49.6,64.7z"/>
	<g>
		<path fill="#231F20" d="M40.1,51.8c-4.7,0-8.5-3.8-8.5-8.5c0-1,0.2-2,0.5-3c0.2-0.5,0.7-0.9,1.3-1c0.6,0,1.1,0.3,1.4,0.8
			c0.8,1.4,2.9,2.3,5.2,2.3s4.5-1,5.2-2.3c0.3-0.5,0.8-0.8,1.4-0.8c0.6,0,1.1,0.4,1.3,1c0.4,1,0.5,2,0.5,3
			C48.6,48,44.8,51.8,40.1,51.8z M34.6,44.1c0.4,2.7,2.7,4.8,5.4,4.8s5.1-2.1,5.4-4.8c-1.5,0.9-3.4,1.4-5.4,1.4S36.1,45,34.6,44.1z"
			/>
		<path fill="#231F20" d="M59.2,51.8c-4.7,0-8.5-3.8-8.5-8.5c0-1,0.2-2,0.5-3c0.2-0.5,0.7-0.9,1.3-1c0.6,0,1.1,0.3,1.4,0.8
			c0.8,1.4,2.9,2.3,5.2,2.3s4.5-1,5.2-2.3c0.3-0.5,0.8-0.8,1.4-0.8c0.6,0,1.1,0.4,1.3,1c0.4,1,0.5,2,0.5,3
			C67.7,48,63.9,51.8,59.2,51.8z M53.7,44.1c0.4,2.7,2.7,4.8,5.4,4.8c2.8,0,5.1-2.1,5.4-4.8c-1.5,0.9-3.4,1.4-5.4,1.4
			S55.2,45,53.7,44.1z"/>
	</g>
	<path fill="#231F20" d="M49.6,76.3c-12.7,0-23.1-10.4-23.1-23.1c0-1.8,0.2-3.6,0.6-5.4c0.2-0.7,0.8-1.2,1.5-1.2l0,0
		c0.7,0,1.3,0.5,1.5,1.2c2.2,9.1,10.2,15.4,19.5,15.4S67,56.9,69.1,47.8c0.2-0.7,0.8-1.2,1.5-1.2s1.3,0.5,1.5,1.2
		c0.4,1.8,0.6,3.6,0.6,5.4C72.7,65.9,62.3,76.3,49.6,76.3z M29.6,54.6c0.7,10.4,9.4,18.7,20,18.7c10.6,0,19.3-8.3,20-18.7
		c-4,7-11.6,11.6-20,11.6S33.6,61.7,29.6,54.6z"/>
</g>
</svg>
