<?xml version="1.0" encoding="utf-8"?>

<svg version="1.1" id="Layer_1" xmlns="http://www.w3.org/2000/svg" xmlns:xlink="http://www.w3.org/1999/xlink" x="0px" y="0px"
	 viewBox="0 0 100 100" enable-background="new 0 0 100 100" xml:space="preserve">
<g>
	<path fill="#AA90C3" d="M83.8,34.2c0-3-0.7-5.8-1.8-8.3c-2.5-1.2-5.3-1.8-8.3-1.8c-4.7,0-13,1.6-16.4,4.3c-2.8-0.6-1.9-0.9-5.1-0.9
		s-9.2,0.3-12.1,0.9c-3.4-2.7-4.7-4.3-9.4-4.3c-3,0-5.8,0.7-8.3,1.8c-1.2,2.5-1.8,5.3-1.8,8.3c0,4,1.2,7.7,3.2,10.9
		c-0.2,1.2-0.4,2.5-0.4,3.8c0,13.5,12.9,27.4,28.8,27.4s28.8-13.9,28.8-27.4c0-1.3-0.1-2.6-0.4-3.8C82.6,41.9,83.8,38.2,83.8,34.2z"
		/>
	<g>
		<path fill="#231F20" d="M42.8,68.2c-3.7,0-6.7-3-6.7-6.7c0-0.8,0.7-1.5,1.5-1.5s1.5,0.7,1.5,1.5c0,2.1,1.7,3.7,3.7,3.7
			c2.1,0,3.9-1.7,3.9-3.7c0-0.8,0.7-1.5,1.5-1.5s1.5,0.7,1.5,1.5C49.7,65.1,46.5,68.2,42.8,68.2z"/>
		<path fill="#231F20" d="M53.6,68.2c-3.7,0-6.9-3.1-6.9-6.7V58c0-0.8,0.7-1.5,1.5-1.5s1.5,0.7,1.5,1.5v3.5c0,2,1.8,3.7,3.9,3.7
			c2.1,0,3.7-1.7,3.7-3.7c0-0.8,0.7-1.5,1.5-1.5s1.5,0.7,1.5,1.5C60.3,65.2,57.3,68.2,53.6,68.2z"/>
	</g>
	<path fill="#231F20" d="M52.7,58.1c0,2.5-2,4.5-4.5,4.5c-2.5,0-4.5-2-4.5-4.5c0-2.5,2-2.9,4.5-2.9C50.7,55.2,52.7,55.6,52.7,58.1z"
		/>
	<g>
		<path fill="#231F20" d="M32.2,32.4c-0.4,0-0.7-0.2-0.9-0.5c-0.9-1.7-3-1.5-3.1-1.5c-0.5,0.1-1-0.3-1.1-0.9c-0.1-0.5,0.3-1,0.9-1.1
			c0.1,0,3.6-0.4,5.1,2.5c0.3,0.5,0.1,1.1-0.4,1.3C32.5,32.3,32.4,32.4,32.2,32.4z"/>
		<path fill="#231F20" d="M64.1,32.4c-0.2,0-0.3,0-0.5-0.1c-0.5-0.3-0.7-0.9-0.4-1.3c1.5-2.9,5-2.6,5.1-2.5c0.5,0.1,0.9,0.6,0.9,1.1
			c-0.1,0.5-0.5,0.9-1.1,0.9c-0.1,0-2.2-0.2-3.1,1.5C64.8,32.2,64.5,32.4,64.1,32.4z"/>
	</g>
	<g>
		<path fill="#231F20" d="M31.3,58c-0.4,0-0.7-0.2-0.9-0.6c-0.2-0.5,0-1.1,0.5-1.3l4.5-2l-5-1.5c-0.5-0.2-0.8-0.7-0.7-1.2
			c0.2-0.5,0.7-0.8,1.2-0.7l7.6,2.3c0.4,0.1,0.7,0.5,0.7,0.9c0,0.4-0.2,0.8-0.6,1l-7,3.1C31.6,58,31.4,58,31.3,58z"/>
		<path fill="#231F20" d="M65,58c-0.1,0-0.3,0-0.4-0.1l-7-3.1c-0.4-0.2-0.6-0.6-0.6-1c0-0.4,0.3-0.8,0.7-0.9l7.6-2.3
			c0.5-0.2,1.1,0.1,1.2,0.7c0.2,0.5-0.1,1.1-0.7,1.2l-5,1.5l4.5,2c0.5,0.2,0.7,0.8,0.5,1.3C65.8,57.8,65.4,58,65,58z"/>
	</g>
	<path fill="#231F20" d="M48.2,77.7c-17.3,0-30.2-15.2-30.2-28.9c0-1.2,0.1-2.3,0.3-3.5C16.1,42,15,38.1,15,34.2c0-3.1,0.7-6.1,2-9
		c0.1-0.3,0.4-0.6,0.7-0.7c2.8-1.3,5.9-2,9-2c4.7,0,9.1,1.5,12.8,4.2c5.6-1.1,11.8-1.1,17.4,0c3.7-2.8,8.1-4.2,12.8-4.2
		c3.1,0,6.1,0.7,9,2c0.3,0.1,0.6,0.4,0.7,0.7c1.3,2.8,2,5.9,2,9c0,4-1.1,7.8-3.2,11.2c0.2,1.1,0.3,2.3,0.3,3.5
		C78.4,62.4,65.5,77.7,48.2,77.7z M19.5,27c-1,2.3-1.5,4.7-1.5,7.2c0,3.6,1,7,3,10c0.2,0.3,0.3,0.7,0.2,1.1
		c-0.2,1.1-0.3,2.3-0.3,3.5c0,12.2,11.7,25.9,27.2,25.9S75.4,61,75.4,48.8c0-1.2-0.1-2.3-0.3-3.5c-0.1-0.4,0-0.8,0.2-1.1
		c2-3,3-6.5,3-10c0-2.5-0.5-4.9-1.5-7.2c-2.3-1-4.7-1.5-7.2-1.5c-4.2,0-8.2,1.4-11.5,4c-0.4,0.3-0.8,0.4-1.3,0.3
		c-5.6-1.2-11.9-1.2-17.5,0c-0.4,0.1-0.9,0-1.3-0.3c-3.3-2.6-7.3-4-11.5-4C24.2,25.5,21.8,26,19.5,27z"/>
	<g>
		<path fill="#FFF100" d="M26.9,39.5c0.3,1,0.7,1.9,1.3,2.8c3.1,4.5,9.2,5.7,13.7,2.6c1.9-1.3,3.2-3.2,3.9-5.3c0,0,0-0.1,0-0.1H26.9
			z"/>
		<path fill="#FFF100" d="M69.4,39.5c-0.3,1-0.7,1.9-1.3,2.8c-3.1,4.5-9.2,5.7-13.7,2.6c-1.9-1.3-3.2-3.2-3.9-5.3c0,0,0-0.1,0-0.1
			H69.4z"/>
	</g>
	<g>
		<path fill="#231F20" d="M36.4,48.2c-0.7,0-1.4-0.1-2.1-0.2c-3-0.6-5.6-2.3-7.3-4.8c-0.7-1-1.2-2.1-1.5-3.2c-0.1-0.5,0-0.9,0.2-1.3
			c0.3-0.4,0.7-0.6,1.2-0.6h18.8c0.7,0,1.3,0.5,1.5,1.1l0,0.1c0.1,0.3,0.1,0.5,0,0.8c-0.7,2.5-2.3,4.6-4.5,6.1
			C40.9,47.5,38.7,48.2,36.4,48.2z M29.2,41c0.1,0.2,0.2,0.3,0.3,0.5c1.3,1.8,3.2,3.1,5.3,3.5c2.2,0.4,4.4,0,6.3-1.3
			c1-0.7,1.9-1.6,2.5-2.7H29.2z"/>
		<path fill="#231F20" d="M59.9,48.2c-2.3,0-4.5-0.7-6.4-2c-2.1-1.5-3.7-3.6-4.5-6.1c-0.1-0.3-0.1-0.5,0-0.8c0,0,0-0.1,0-0.1
			c0.2-0.7,0.8-1.1,1.5-1.1h18.8c0.5,0,0.9,0.2,1.2,0.6c0.3,0.4,0.4,0.9,0.2,1.3c-0.3,1.2-0.8,2.3-1.5,3.2c-1.7,2.5-4.3,4.2-7.3,4.8
			C61.4,48.1,60.6,48.2,59.9,48.2z M52.8,41c0.6,1.1,1.5,2,2.5,2.7c1.8,1.3,4.1,1.7,6.3,1.3s4.1-1.7,5.3-3.5
			c0.1-0.1,0.2-0.3,0.3-0.5H52.8z"/>
	</g>
</g>
</svg>
