<?xml version="1.0" encoding="utf-8"?>

<svg version="1.1" id="Layer_1" xmlns="http://www.w3.org/2000/svg" xmlns:xlink="http://www.w3.org/1999/xlink" x="0px" y="0px"
	 viewBox="0 0 100 100" enable-background="new 0 0 100 100" xml:space="preserve">
<g>
	<path fill="#8BC53F" d="M51.7,31.3c0,0-9.1-7.9-13.9-6.6l8.8,7.3L51.7,31.3z"/>
	<path fill="#231F20" d="M53.2,36.5c0-0.1-2.7-6.3-11.3-10.5c-0.9-0.4-1.5-0.6-1.8-0.7c0.3,1.4,2.1,4.5,4.1,7.3l-2.4,1.8
		c-4.2-5.8-5.6-9.6-4.1-11.3c1.5-1.8,4.5-0.3,5.6,0.2c9.7,4.7,12.6,11.7,12.8,12L53.2,36.5z"/>
	<g>
		<linearGradient id="SVGID_1_" gradientUnits="userSpaceOnUse" x1="52.0587" y1="87.0707" x2="52.0587" y2="26.409">
			<stop  offset="0" style="stop-color:#F6921E"/>
			<stop  offset="0.3442" style="stop-color:#F7951D"/>
			<stop  offset="0.5983" style="stop-color:#F89E1A"/>
			<stop  offset="0.8228" style="stop-color:#FBAE14"/>
			<stop  offset="1" style="stop-color:#FFC10E"/>
		</linearGradient>
		<path fill="url(#SVGID_1_)" d="M84.7,57.5c0-8.8-6.4-16.2-14.7-17.8c-4.3-4-15.1-7.4-21.4-7.4s-12.1,3.4-16.4,7.4
			c-8.4,1.6-12.7,8.9-12.7,17.8c0,8.8,4.4,16.2,12.7,17.8c4.3,4,10.1,7.4,16.4,7.4s17.1-3.4,21.4-7.4C78.3,73.7,84.7,66.3,84.7,57.5
			z"/>
	</g>
	<g>
		<path fill="#231F20" d="M49,72.8c-2.5,0-4.2-0.2-5.7-0.7c-0.5-0.2-0.8-0.7-0.6-1.3c0.2-0.5,0.7-0.8,1.3-0.6
			c1.3,0.4,2.9,0.6,5.1,0.6c0.6,0,1,0.4,1,1S49.5,72.8,49,72.8z"/>
		<path fill="#231F20" d="M39,68.5c-0.3,0-0.7-0.2-0.9-0.5c-1.3-2.3-2-5.4-2.1-9.6c0-0.6,0.4-1,1-1c0,0,0,0,0,0c0.5,0,1,0.4,1,1
			c0.1,3.8,0.7,6.6,1.8,8.6c0.3,0.5,0.1,1.1-0.4,1.4C39.3,68.5,39.1,68.5,39,68.5z M37.2,53.4C37.2,53.4,37.2,53.4,37.2,53.4
			c-0.6-0.1-1.1-0.5-1-1.1c0.3-3.2,1-6.5,1.8-9.4c0.2-0.5,0.7-0.8,1.2-0.7c0.5,0.2,0.8,0.7,0.7,1.2c-0.8,2.8-1.5,5.9-1.8,9
			C38.2,53,37.7,53.4,37.2,53.4z"/>
		<path fill="#231F20" d="M41.2,38.6c-0.2,0-0.3,0-0.5-0.1c-0.5-0.2-0.7-0.9-0.4-1.3c1-2,2.1-3.6,3.3-4.8c0.4-0.4,1-0.4,1.4,0
			c0.4,0.4,0.4,1,0,1.4c-1,1.1-2,2.5-2.9,4.3C41.9,38.4,41.6,38.6,41.2,38.6z"/>
	</g>
	<g>
		<path fill="#231F20" d="M48,72.8c-0.6,0-1-0.4-1-1s0.4-1,1-1c2.2,0,3.8-0.2,5.1-0.6c0.5-0.2,1.1,0.1,1.3,0.6
			c0.2,0.5-0.1,1.1-0.6,1.3C52.2,72.6,50.4,72.8,48,72.8z"/>
		<path fill="#231F20" d="M58,68.5c-0.2,0-0.3,0-0.5-0.1c-0.5-0.3-0.6-0.9-0.4-1.4c1.1-2,1.8-4.8,1.8-8.6c0-0.5,0.5-1,1-1
			c0,0,0,0,0,0c0.6,0,1,0.5,1,1c-0.1,4.2-0.8,7.3-2.1,9.6C58.7,68.3,58.3,68.5,58,68.5z M59.7,53.4c-0.5,0-0.9-0.4-1-0.9
			c-0.3-3.1-0.9-6.2-1.8-9c-0.2-0.5,0.1-1.1,0.7-1.2c0.5-0.2,1.1,0.1,1.2,0.7c0.9,2.9,1.5,6.2,1.8,9.4
			C60.8,52.9,60.4,53.4,59.7,53.4C59.8,53.4,59.8,53.4,59.7,53.4z"/>
		<path fill="#231F20" d="M55.7,38.6c-0.4,0-0.7-0.2-0.9-0.5c-0.9-1.8-1.9-3.2-2.9-4.3c-0.4-0.4-0.4-1,0-1.4c0.4-0.4,1-0.4,1.4,0
			c1.2,1.2,2.3,2.8,3.3,4.8c0.2,0.5,0.1,1.1-0.4,1.3C56,38.6,55.9,38.6,55.7,38.6z"/>
	</g>
	<path fill="#231F20" d="M48.6,33.5c6.3,0,12,2.4,16.2,6.3c8.3,1.6,14.6,8.8,14.6,17.6c0,8.8-6.3,16-14.6,17.6
		c-4.3,3.9-10,6.3-16.2,6.3c-6.3,0-12-2.4-16.2-6.3c-8.3-1.6-14.6-8.8-14.6-17.6c0-8.8,6.3-16,14.6-17.6
		C36.6,35.9,42.3,33.5,48.6,33.5 M48.6,30.5c-6.5,0-12.7,2.3-17.6,6.6c-9.4,2.2-16.2,10.6-16.2,20.4c0,9.8,6.8,18.2,16.2,20.4
		c4.9,4.2,11.1,6.6,17.6,6.6c6.5,0,12.7-2.3,17.6-6.6c9.4-2.2,16.2-10.6,16.2-20.4c0-9.8-6.8-18.2-16.2-20.4
		C61.3,32.8,55.1,30.5,48.6,30.5L48.6,30.5z"/>
	<g>
		<path fill="#FFF100" d="M48.7,66.3c-9.2,0-17.1-3.8-20.9-9.3c0,0.3-0.1,0.6-0.1,1c0,8.3,9.4,15,21,15s21-6.7,21-15
			c0-0.3,0-0.6-0.1-1C65.8,62.5,57.9,66.3,48.7,66.3z"/>
	</g>
	<g>
		<path fill="#FFF100" d="M35.8,48.4c0,0.1,0,0.2,0,0.4c0,2.3,1.9,4.2,4.2,4.2c2.3,0,4.2-1.9,4.2-4.2c0-0.1,0-0.2,0-0.4H35.8z"/>
	</g>
	<g>
		<path fill="#FFF100" d="M53.4,48.4c0,0.1,0,0.2,0,0.4c0,2.3,1.9,4.2,4.2,4.2c2.3,0,4.2-1.9,4.2-4.2c0-0.1,0-0.2,0-0.4H53.4z"/>
	</g>
	<path fill="#231F20" d="M69.7,57c0,0.3,0.1,0.6,0.1,1c0,8.3-9.4,15-21,15s-21-6.7-21-15c0-0.3,0-0.6,0.1-1
		c3.8,5.5,11.7,9.3,20.9,9.3S65.8,62.5,69.7,57 M69.7,54c-1,0-1.9,0.5-2.5,1.3c-3.4,4.9-10.6,8-18.5,8s-15.1-3.1-18.5-8
		c-0.6-0.8-1.5-1.3-2.5-1.3c-0.3,0-0.5,0-0.8,0.1c-1.2,0.3-2.1,1.4-2.2,2.6l0,0.2c0,0.3-0.1,0.6-0.1,1c0,9.9,10.8,18,24,18
		s24-8.1,24-18c0-0.4,0-0.8-0.1-1l0-0.2c-0.1-1.3-1-2.3-2.2-2.6C70.2,54,69.9,54,69.7,54L69.7,54z"/>
	<path fill="#231F20" d="M44,48.4c0,0.1,0,0.2,0,0.4c0,2.3-1.9,4.2-4.2,4.2c-2.3,0-4.2-1.9-4.2-4.2c0-0.1,0-0.2,0-0.4H44 M44,45.4
		h-8.3c-1.6,0-2.8,1.2-3,2.7c0,0.1,0,0.4,0,0.6c0,4,3.2,7.2,7.2,7.2c4,0,7.2-3.2,7.2-7.2c0-0.3,0-0.5,0-0.6
		C46.9,46.6,45.6,45.4,44,45.4L44,45.4z"/>
	<path fill="#231F20" d="M61.7,48.4c0,0.1,0,0.2,0,0.4c0,2.3-1.9,4.2-4.2,4.2c-2.3,0-4.2-1.9-4.2-4.2c0-0.1,0-0.2,0-0.4H61.7
		 M61.7,45.4h-8.3c-1.6,0-2.8,1.2-3,2.7c0,0.1,0,0.4,0,0.6c0,4,3.2,7.2,7.2,7.2c4,0,7.2-3.2,7.2-7.2c0-0.3,0-0.5,0-0.6
		C64.5,46.6,63.2,45.4,61.7,45.4L61.7,45.4z"/>
</g>
</svg>
