<?xml version="1.0" encoding="utf-8"?>

<svg version="1.1" id="Layer_1" xmlns="http://www.w3.org/2000/svg" xmlns:xlink="http://www.w3.org/1999/xlink" x="0px" y="0px"
	 viewBox="0 0 100 100" enable-background="new 0 0 100 100" xml:space="preserve">
<g>
	<g>
		<path fill="#8BC53F" d="M46.8,28.5c0,0,0.7-6.8,2.9-6.8c2.2,0,2.6,7.1,2.6,7.1L46.8,28.5z"/>
	</g>
	<path fill="#231F20" d="M48.7,21.7c2.2,0,2.6,5.1,2.6,5.1l-5.4-0.3C45.8,26.5,46.4,21.7,48.7,21.7 M48.7,18.7
		c-3.5,0-5.4,3.8-5.9,7.3l-0.5,3.2l3.2,0.2l5.4,0.3l3.4,0.2l-0.2-3.4C53.9,22.8,52.4,18.7,48.7,18.7L48.7,18.7z"/>
	<g>
		<linearGradient id="SVGID_1_" gradientUnits="userSpaceOnUse" x1="52.7906" y1="88.924" x2="52.7906" y2="14.0229">
			<stop  offset="0" style="stop-color:#F6921E"/>
			<stop  offset="0.3442" style="stop-color:#F7951D"/>
			<stop  offset="0.5983" style="stop-color:#F89E1A"/>
			<stop  offset="0.8228" style="stop-color:#FBAE14"/>
			<stop  offset="1" style="stop-color:#FFC10E"/>
		</linearGradient>
		<path fill="url(#SVGID_1_)" d="M78.7,43.5c-4.4-9.8-14.3-16.7-25.9-16.7s-21.5,6.9-25.9,16.7c-3.5,4.1-5.6,9.4-5.6,15.2
			c0,13,10.7,23.6,23.9,23.6c0.6,0,1.3,0,1.9-0.1c1.8,0.4,3.7,0.6,5.7,0.6c2,0,3.9-0.2,5.7-0.6c0.6,0.1,1.3,0.1,1.9,0.1
			c13.2,0,23.9-10.6,23.9-23.6C84.3,52.9,82.2,47.6,78.7,43.5z"/>
	</g>
	<path fill="#231F20" d="M34.2,52.7C34.2,52.7,34.2,52.7,34.2,52.7c-0.6,0-1-0.5-1-1c0-0.2,0.2-4.1,2.1-9.1c0.2-0.5,0.8-0.8,1.3-0.6
		c0.5,0.2,0.8,0.8,0.6,1.3c-1.8,4.6-1.9,8.4-1.9,8.4C35.2,52.2,34.7,52.7,34.2,52.7z M37.9,40.3c-0.2,0-0.3,0-0.5-0.1
		c-0.5-0.3-0.7-0.9-0.4-1.4c1.2-2.2,2.7-4.3,4.5-6c0.4-0.4,1-0.4,1.4,0c0.4,0.4,0.4,1,0,1.4c-1.6,1.6-3,3.5-4.1,5.6
		C38.6,40.1,38.2,40.3,37.9,40.3z"/>
	<path fill="#231F20" d="M62.6,52.7c-0.5,0-1-0.4-1-1c0,0-0.2-3.8-1.9-8.4c-0.2-0.5,0.1-1.1,0.6-1.3c0.5-0.2,1.1,0.1,1.3,0.6
		c1.9,4.9,2.1,8.9,2.1,9.1C63.6,52.2,63.2,52.6,62.6,52.7C62.6,52.7,62.6,52.7,62.6,52.7z M58.9,40.3c-0.4,0-0.7-0.2-0.9-0.5
		c-1.1-2.1-2.5-4-4.1-5.6c-0.4-0.4-0.4-1,0-1.4s1-0.4,1.4,0c1.7,1.8,3.2,3.8,4.5,6c0.3,0.5,0.1,1.1-0.4,1.4
		C59.2,40.2,59.1,40.3,58.9,40.3z"/>
	<g>
		<path fill="#FFF100" d="M59.3,46.9c3.1,0,5.8-1.4,7.6-3.6c-1.4-3.7-5-6.3-9.2-6.3c-1.9,0-3.6,0.5-5.1,1.4
			c-0.8,1.2-1.2,2.7-1.4,4.2C52.9,45.2,55.9,46.9,59.3,46.9z"/>
		<path fill="#FFF100" d="M38.5,46.9c-3.1,0-5.8-1.4-7.6-3.6c1.4-3.7,5-6.3,9.2-6.3c1.9,0,3.6,0.5,5.1,1.4c0.8,1.2,1.2,2.7,1.4,4.2
			C44.8,45.2,41.8,46.9,38.5,46.9z"/>
	</g>
	<g>
		<path fill="#FFF100" d="M68.4,51C67.8,61.6,59,70.1,48.2,70.1c-9.7,0-17.8-6.9-19.7-16c0,0.4,0,0.7,0,1.1c0,11.1,9,20.2,20.2,20.2
			s20.2-9,20.2-20.2C68.8,53.7,68.7,52.3,68.4,51z"/>
	</g>
	<path fill="#231F20" d="M48.9,28.2c10.9,0,20.2,6.5,24.3,15.9c3.3,3.9,5.3,8.9,5.3,14.4C78.5,70.9,68.4,81,56,81
		c-0.6,0-1.2,0-1.8-0.1c-1.7,0.4-3.5,0.5-5.4,0.5s-3.6-0.2-5.4-0.5c-0.6,0-1.2,0.1-1.8,0.1c-12.4,0-22.4-10-22.4-22.4
		c0-5.5,2-10.5,5.3-14.4C28.7,34.7,38,28.2,48.9,28.2 M48.9,25.2C37.3,25.2,26.8,32,22,42.5c-3.7,4.5-5.7,10.2-5.7,16
		c0,14,11.4,25.4,25.4,25.4c0.5,0,1,0,1.6-0.1c1.8,0.3,3.7,0.5,5.5,0.5s3.7-0.2,5.5-0.5c0.6,0,1.1,0.1,1.6,0.1
		c14,0,25.4-11.4,25.4-25.4c0-5.8-2-11.5-5.7-16C71,32,60.4,25.2,48.9,25.2L48.9,25.2z"/>
	<g>
		<path fill="#231F20" d="M59.3,48.4c-3.7,0-7.2-1.8-9.4-4.9l-0.3-0.5l0.1-0.5c0.2-1.7,0.7-3.3,1.6-4.8l0.2-0.3l0.3-0.2
			c1.8-1.1,3.8-1.7,5.9-1.7c4.7,0,8.9,2.9,10.6,7.3l0.3,0.8L68,44.3C65.9,46.9,62.7,48.4,59.3,48.4z M52.7,42.2c1.6,2,4,3.2,6.6,3.2
			c2.2,0,4.3-0.8,5.8-2.4c-1.4-2.8-4.3-4.5-7.5-4.5c-1.4,0-2.8,0.4-4,1C53.2,40.4,52.9,41.3,52.7,42.2z"/>
		<path fill="#231F20" d="M38.5,48.4c-3.4,0-6.6-1.5-8.8-4.1l-0.6-0.7l0.3-0.8c1.7-4.4,5.9-7.3,10.6-7.3c2.1,0,4.1,0.6,5.9,1.7
			l0.3,0.2l0.2,0.3c0.9,1.5,1.4,3.1,1.6,4.8l0.1,0.5l-0.3,0.5C45.7,46.6,42.2,48.4,38.5,48.4z M32.6,43.1c1.6,1.5,3.6,2.4,5.8,2.4
			c2.6,0,5-1.2,6.6-3.2c-0.2-0.9-0.5-1.8-0.9-2.7c-1.2-0.7-2.6-1-4-1C36.9,38.5,34.1,40.3,32.6,43.1z"/>
	</g>
	<path fill="#231F20" d="M68.4,51c0.3,1.3,0.4,2.7,0.4,4.2c0,11.1-9,20.2-20.2,20.2s-20.2-9-20.2-20.2c0-0.4,0-0.7,0-1.1
		c1.9,9.1,10,16,19.7,16C59,70.1,67.8,61.6,68.4,51 M68.4,48c-0.1,0-0.2,0-0.2,0c-1.5,0.1-2.7,1.3-2.8,2.8
		c-0.5,9.1-8,16.3-17.1,16.3c-8.1,0-15.1-5.7-16.8-13.6c-0.3-1.4-1.5-2.4-2.9-2.4c-0.1,0-0.2,0-0.2,0c-1.5,0.1-2.7,1.3-2.8,2.8
		c0,0.4,0,0.8,0,1.2c0,12.8,10.4,23.2,23.2,23.2s23.2-10.4,23.2-23.2c0-1.6-0.2-3.2-0.5-4.8C71,49,69.8,48,68.4,48L68.4,48z"/>
	<g>
		<path fill="#231F20" d="M48.5,62.5c-0.6,0-1-0.4-1-1v-3c0-0.6,0.4-1,1-1s1,0.4,1,1v3C49.5,62,49.1,62.5,48.5,62.5z"/>
		<path fill="#231F20" d="M48.5,52.5c-0.6,0-1-0.4-1-1v-3c0-0.6,0.4-1,1-1s1,0.4,1,1v3C49.5,52,49.1,52.5,48.5,52.5z"/>
	</g>
</g>
</svg>
