<?xml version="1.0" encoding="utf-8"?>

<svg version="1.1" id="Layer_1" xmlns="http://www.w3.org/2000/svg" xmlns:xlink="http://www.w3.org/1999/xlink" x="0px" y="0px"
	 viewBox="0 0 100 100" enable-background="new 0 0 100 100" xml:space="preserve">
<g>
	<g>
		<path fill="#8BC53F" d="M48.4,30.5c0.4,0,0.7,0,1,0c0.4-8.1,5.4-9.4,7.4-10.8c0.7-0.5,1-1.4,0.6-2.2c-0.3-0.5-0.7-0.8-1.1-0.9
			c-0.6-0.2-1.2,0.1-1.8,0.4c-8,5.5-7.4,11.5-7.3,13.5C47.6,30.5,48,30.5,48.4,30.5z"/>
	</g>
	<path fill="#231F20" d="M54.1,17c0.1,0,0.3,0,0.4,0.1c0.4,0.1,0.8,0.4,1.1,0.9c0.4,0.7,0.1,1.6-0.6,2.1c-1.8,1.3-6.5,2.5-6.9,10.1
		c-0.3,0-0.7,0-1,0c-0.3,0-0.7,0-1,0c-0.1-1.9-0.7-7.5,6.8-12.6C53.2,17.2,53.7,17,54.1,17 M54.1,14c-1,0-2,0.3-2.9,1
		c-8.7,6-8.3,12.8-8.1,15.1l0,0.2l0.2,3l3-0.2c0.3,0,0.6,0,0.8,0c0.3,0,0.5,0,0.8,0l3,0.2l0.2-3c0.2-4.7,2.3-5.9,4.3-7
		c0.5-0.3,0.9-0.5,1.4-0.8c1.9-1.3,2.6-3.9,1.5-5.9c-0.6-1.1-1.6-1.9-2.8-2.3C55,14.1,54.6,14,54.1,14L54.1,14z"/>
	<g>
		<linearGradient id="SVGID_1_" gradientUnits="userSpaceOnUse" x1="52.4725" y1="87.9681" x2="52.4725" y2="7.5104">
			<stop  offset="0" style="stop-color:#F6921E"/>
			<stop  offset="0.3442" style="stop-color:#F7951D"/>
			<stop  offset="0.5983" style="stop-color:#F89E1A"/>
			<stop  offset="0.8228" style="stop-color:#FBAE14"/>
			<stop  offset="1" style="stop-color:#FFC10E"/>
		</linearGradient>
		<path fill="url(#SVGID_1_)" d="M82.4,53.5c0-16.3-13.4-29.4-29.9-29.4c-16.5,0-29.9,13.2-29.9,29.4c0,5.1,1.3,9.9,3.6,14
			c0.3,8.2,7.1,14.7,15.5,14.7c1.1,0,2.1-0.1,3.1-0.3c2.4,0.6,5,1,7.7,1c2.6,0,5.2-0.3,7.7-1c1,0.2,2,0.3,3.1,0.3
			c8.4,0,15.2-6.5,15.5-14.7C81.1,63.3,82.4,58.6,82.4,53.5z"/>
	</g>
	<path fill="#231F20" d="M48.3,25.6c15.4,0,27.9,12.5,27.9,27.9c0,4.8-1.2,9.4-3.4,13.3c-0.3,7.8-6.7,14-14.5,14c-1,0-2-0.1-2.9-0.3
		c-2.3,0.6-4.7,0.9-7.2,0.9s-4.9-0.3-7.2-0.9c-0.9,0.2-1.9,0.3-2.9,0.3c-7.8,0-14.2-6.2-14.5-14c-2.1-4-3.4-8.5-3.4-13.3
		C20.3,38.1,32.8,25.6,48.3,25.6 M48.3,22.6c-17.1,0-30.9,13.9-30.9,30.9c0,4.9,1.2,9.8,3.4,14.1c0.7,9.1,8.2,16.2,17.5,16.2
		c0.9,0,1.9-0.1,2.8-0.2c2.4,0.6,4.8,0.9,7.3,0.9s4.9-0.3,7.3-0.9c0.9,0.1,1.9,0.2,2.8,0.2c9.2,0,16.8-7,17.5-16.2
		c2.2-4.3,3.4-9.2,3.4-14.1C79.2,36.4,65.3,22.6,48.3,22.6L48.3,22.6z"/>
	<path fill="#231F20" d="M40,69.6c-0.3,0-0.6-0.2-0.8-0.5c-1.5-2.3-2.5-5-2.8-8c-0.1-0.5,0.3-1,0.9-1.1c0.5-0.1,1,0.3,1.1,0.9
		c0.3,2.7,1.2,5.1,2.5,7.2c0.3,0.5,0.2,1.1-0.3,1.4C40.4,69.5,40.2,69.6,40,69.6z M37.2,58C37.2,58,37.2,58,37.2,58
		c-0.6,0-1-0.5-1-1c0.2-5.1,1.8-9,1.9-9.1c0.2-0.5,0.8-0.8,1.3-0.5c0.5,0.2,0.8,0.8,0.5,1.3c0,0-1.5,3.7-1.8,8.4
		C38.2,57.6,37.7,58,37.2,58z"/>
	<path fill="#231F20" d="M56.3,69.6c-0.2,0-0.4-0.1-0.5-0.2c-0.5-0.3-0.6-0.9-0.3-1.4c1.3-2.1,2.2-4.5,2.5-7.2
		c0.1-0.5,0.6-0.9,1.1-0.9c0.5,0.1,0.9,0.6,0.9,1.1c-0.4,3-1.3,5.7-2.8,8C57,69.4,56.6,69.6,56.3,69.6z M59.1,58c-0.5,0-1-0.4-1-1
		c-0.2-4.7-1.7-8.4-1.8-8.4c-0.2-0.5,0-1.1,0.5-1.3c0.5-0.2,1.1,0,1.3,0.5c0.1,0.2,1.7,4.1,1.9,9.1C60.1,57.5,59.7,58,59.1,58
		C59.1,58,59.1,58,59.1,58z"/>
	<g>
		<g>
			<path fill="#FFF100" d="M48.3,69.7c-9.6,0-17.5-4.4-18.6-11.9c-0.1,0.5-0.1,1.1-0.1,1.6c0,8.3,8.4,15,18.7,15s18.7-6.7,18.7-15
				c0-0.6,0-1.1-0.1-1.6C65.8,65.3,57.9,69.7,48.3,69.7z"/>
		</g>
	</g>
	<g>
		<path fill="#FFF100" d="M41,37.5c0.6,4.8-2.8,9.2-7.6,9.8c-1.3,0.2-2.5,0-3.6-0.3c1.7,2.9,5,4.6,8.6,4.2c4.8-0.6,8.2-5,7.6-9.8
			c-0.4-3.5-2.9-6.3-6.1-7.3C40.5,35.1,40.9,36.2,41,37.5z"/>
		<path fill="#FFF100" d="M55.5,37.5c-0.6,4.8,2.8,9.2,7.6,9.8c1.3,0.2,2.5,0,3.6-0.3c-1.7,2.9-5,4.6-8.6,4.2
			c-4.8-0.6-8.2-5-7.6-9.8c0.4-3.5,2.9-6.3,6.1-7.3C56.1,35.1,55.7,36.2,55.5,37.5z"/>
	</g>
	<g>
		<path fill="#231F20" d="M66.8,57.8c0.1,0.5,0.1,1.1,0.1,1.6c0,8.3-8.4,15-18.7,15s-18.7-6.7-18.7-15c0-0.6,0-1.1,0.1-1.6
			c1,7.5,8.9,11.9,18.6,11.9S65.8,65.3,66.8,57.8 M66.8,54.8c-1.5,0-2.8,1.1-3,2.6c-0.9,6.4-8.5,9.3-15.6,9.3s-14.7-2.9-15.6-9.3
			c-0.2-1.5-1.5-2.6-3-2.6c0,0,0,0,0,0c-1.5,0-2.8,1.1-3,2.6c-0.1,0.7-0.1,1.4-0.1,2c0,9.9,9.7,18,21.7,18s21.7-8.1,21.7-18
			c0-0.7,0-1.4-0.1-2C69.6,55.9,68.3,54.8,66.8,54.8L66.8,54.8z"/>
	</g>
	<g>
		<path fill="#231F20" d="M37.3,52.7c-3.6,0-6.9-1.9-8.8-5c-0.3-0.5-0.3-1.2,0.1-1.7c0.4-0.5,1-0.7,1.6-0.5c1,0.3,2,0.4,3,0.3
			c4-0.5,6.8-4.1,6.3-8.1l0,0c-0.1-1-0.5-2-1-2.9c-0.3-0.5-0.3-1.2,0.1-1.7c0.4-0.5,1-0.7,1.6-0.5c3.9,1.2,6.7,4.6,7.2,8.6
			c0.7,5.6-3.3,10.7-8.9,11.4C38.1,52.7,37.7,52.7,37.3,52.7z M33.7,48.7c1.3,0.8,2.9,1.1,4.5,0.9c4-0.5,6.8-4.1,6.3-8.1
			c-0.2-1.6-0.9-3-2-4.1C43.1,43,39.2,48,33.7,48.7z"/>
		<path fill="#231F20" d="M59.3,52.7c-0.4,0-0.8,0-1.2-0.1c-5.6-0.7-9.6-5.8-8.9-11.4c0.5-4,3.3-7.4,7.2-8.6c0.6-0.2,1.2,0,1.6,0.5
			c0.4,0.5,0.4,1.2,0.1,1.7c-0.5,0.9-0.9,1.8-1,2.9c-0.5,4,2.4,7.6,6.3,8.1c1,0.1,2,0,3-0.3c0.6-0.2,1.2,0,1.6,0.5
			c0.4,0.5,0.4,1.2,0.1,1.7C66.2,50.8,62.8,52.7,59.3,52.7z M54,37.4c-1.1,1.1-1.8,2.5-2,4.1c-0.5,4,2.4,7.6,6.3,8.1
			c1.6,0.2,3.1-0.1,4.5-0.9c-2.7-0.4-5.1-1.7-6.7-3.8C54.5,42.8,53.7,40.1,54,37.4z"/>
	</g>
</g>
</svg>
